<svg viewBox="0 0 64 64" xmlns="http://www.w3.org/2000/svg"><g data-name="18-airplane"><rect height="4" rx="2" width="10" x="24" y="5" fill="#e2edf5" class="fill-f6f0e5"></rect><rect height="4" rx="2" width="10" x="30" y="15" fill="#e2edf5" class="fill-f6f0e5"></rect><path d="M25 29 17 1h7l19 28H25z" fill="#bcc1cc" class="fill-ccc7be"></path><rect height="4" rx="2" width="10" x="24" y="55" fill="#e2edf5" class="fill-f6f0e5"></rect><rect height="4" rx="2" width="10" x="30" y="45" fill="#e2edf5" class="fill-f6f0e5"></rect><path d="m25 35-8 28h7l19-28H25z" fill="#bcc1cc" class="fill-ccc7be"></path><path d="M63 32c0 4-7 6-7 6H9l-2-6 2-6h47s7 2 7 6Z" fill="#e2edf5" class="fill-f6f0e5"></path><path d="M15 32 9 43H1l6-11-6-11h8l6 11z" fill="#bcc1cc" class="fill-ccc7be"></path><rect height="4" rx="2" width="14" x="1" y="30" fill="#e2edf5" class="fill-f6f0e5"></rect><path d="M56.274 25.039A.97.97 0 0 0 56 25H41.494l-3.4-5.01A3 3 0 0 0 38 14h-3.97l-2.715-4H32a3 3 0 0 0 0-6h-4.756L24.827.438A1 1 0 0 0 24 0h-7a1 1 0 0 0-.962 1.275L22.816 25H12.321l-2.443-4.479A1 1 0 0 0 9 20H1a1 1 0 0 0-.878 1.479L4.224 29H3a3 3 0 0 0 0 6h1.225l-4.1 7.521A1 1 0 0 0 1 44h8a1 1 0 0 0 .878-.521s4.929-9.075 4.944-9.112a2.967 2.967 0 0 0 0-4.734C14.807 29.6 13.412 27 13.412 27h42.443c1.831.554 6.145 2.411 6.145 5s-4.314 4.445-6.145 5H16a1 1 0 0 0 0 2h6.817l-6.779 23.726A1 1 0 0 0 17 64h7a1 1 0 0 0 .827-.438L27.244 60H32a3 3 0 0 0 0-6h-.685l2.715-4H38a3 3 0 0 0 .094-5.99l3.4-5.01H56a1.007 1.007 0 0 0 .274-.038C56.59 38.871 64 36.7 64 32s-7.41-6.872-7.726-6.961ZM2.685 22h5.721l3.818 7H6.5ZM2 32a1 1 0 0 1 1-1h10a1 1 0 0 1 0 2H3a1 1 0 0 1-1-1Zm6.406 10H2.685L6.5 35h5.722ZM38 16a1 1 0 0 1 0 2h-1.256l-1.357-2ZM32 6a1 1 0 0 1 0 2h-2.042L28.6 6ZM18.326 2h5.144l15.607 23H24.9ZM32 56a1 1 0 0 1 0 2h-3.4l1.357-2Zm6-10a1 1 0 0 1 0 2h-2.613l1.357-2ZM23.47 62h-5.144L24.9 39h14.18Z" fill="#000000" class="fill-000000"></path><path d="M55.553 34.1a1 1 0 0 0 .894 1.79A4.693 4.693 0 0 0 59 32a4.694 4.694 0 0 0-2.553-3.895 1 1 0 0 0-.9 1.787A2.723 2.723 0 0 1 57 32a2.721 2.721 0 0 1-1.447 2.1Z" fill="#000000" class="fill-000000"></path></g></svg>